<svg width="25" height="25" viewBox="0 0 25 25" fill="none" xmlns="http://www.w3.org/2000/svg">
<path d="M9.65601 9.43958L15.6083 15.3918L8.99999 22.0001C5.50355 25.4966 -0.169003 19.2646 3.04772 16.0479L9.65601 9.43958Z" fill="#90A0B7"/>
<path d="M9.65601 9.43958L15.6083 15.3918M9.65601 9.43958C9.65601 9.43958 6.26445 12.8311 3.04772 16.0479M9.65601 9.43958L3.04772 16.0479M15.6083 15.3918C15.6083 15.3918 12.4964 18.5037 8.99999 22.0001M15.6083 15.3918L8.99999 22.0001M8.99999 22.0001C5.50355 25.4966 -0.169003 19.2646 3.04772 16.0479" stroke="black" stroke-width="0.3"/>
<path d="M15.6082 15.3918L9.65588 9.43958L16.2642 2.83129C19.7606 -0.665153 25.4332 5.56683 22.2164 8.78356L15.6082 15.3918Z" fill="white"/>
<path d="M15.6082 15.3918L9.65588 9.43958M15.6082 15.3918C15.6082 15.3918 18.9997 12.0003 22.2164 8.78356M15.6082 15.3918L22.2164 8.78356M9.65588 9.43958C9.65588 9.43958 12.7677 6.32774 16.2642 2.83129M9.65588 9.43958L16.2642 2.83129M16.2642 2.83129C19.7606 -0.665153 25.4332 5.56683 22.2164 8.78356" stroke="black" stroke-width="0.3"/>
</svg>
