<svg width="25" height="25" viewBox="0 0 25 25" fill="none" xmlns="http://www.w3.org/2000/svg">
<path d="M20.7458 4.59925C20.7393 4.59356 20.732 4.58787 20.725 4.58241L19.1574 3.38785V2.35574C19.1574 2.15913 18.9758 2 18.7519 2C18.5281 2 18.3464 2.15913 18.3464 2.35574V4.81174C18.3464 5.00835 18.5281 5.16748 18.7519 5.16748C18.9758 5.16748 19.1574 5.00835 19.1574 4.81174V4.33008L20.1821 5.11104C21.3016 6.10022 21.5111 7.62278 20.6917 8.81663L18.5875 11.8558L18.4916 11.7206C18.4175 11.6163 18.2872 11.553 18.1474 11.553C18.1463 11.553 18.1452 11.553 18.1442 11.553C18.0033 11.5539 17.8727 11.6191 17.8 11.7254C17.5075 12.1515 16.8229 12.5255 16.3347 12.5255C15.8215 12.5255 15.0459 12.1293 14.7691 11.7256C14.6963 11.6194 14.5657 11.5541 14.4246 11.5532C14.2867 11.5482 14.1518 11.6158 14.0772 11.7211L14.0088 11.8179L11.9766 8.819C11.1547 7.62064 11.3688 6.0924 12.4819 5.11531L13.4468 4.35047V4.88906C13.4468 5.08566 13.6284 5.24479 13.8523 5.24479C14.0761 5.24479 14.2578 5.08566 14.2578 4.88906V2.43234C14.2578 2.23573 14.0761 2.0766 13.8523 2.0766C13.6284 2.0766 13.4468 2.23573 13.4468 2.43234V3.39093L11.923 4.59925C10.531 5.82038 10.2671 7.70626 11.2804 9.18375L13.5265 12.498L13.3232 12.785C13.2429 12.8986 13.2418 13.0418 13.3202 13.1564C13.8353 13.9063 14.9226 14.5127 15.9294 14.6474V16.3165C15.9294 16.3324 15.9308 16.3481 15.9332 16.3635C15.8997 19.0849 13.5635 21.2888 10.697 21.2888C7.8096 21.2888 5.46076 19.0526 5.46076 16.3039C5.46076 16.2883 5.45968 16.2726 5.45725 16.2575V9.27838C6.32427 9.09197 6.97042 8.40611 6.97042 7.58863C6.97042 6.62837 6.08041 5.84718 4.98629 5.84718C3.89109 5.84718 3 6.62837 3 7.58863C3 8.4469 3.71265 9.16051 4.64619 9.30257V16.3677C4.64619 16.3862 4.64781 16.4045 4.65105 16.422C4.7181 19.5087 7.40461 22 10.697 22C14.0315 22 16.7445 19.4446 16.7445 16.3037C16.7445 16.2869 16.7432 16.2705 16.7405 16.2544V14.6469C17.711 14.5141 18.7189 13.9281 19.2499 13.1561C19.3288 13.0416 19.3275 12.8979 19.2469 12.7843L19.068 12.5322L21.3857 9.18422C22.4009 7.70554 22.1376 5.8199 20.7458 4.59925ZM3.81079 7.58863C3.81079 7.02063 4.33798 6.55865 4.98602 6.55865C5.63298 6.55865 6.15909 7.02063 6.15909 7.58863C6.15909 8.15662 5.63298 8.6186 4.98602 8.6186C4.33798 8.6186 3.81079 8.15662 3.81079 7.58863ZM16.3355 13.9644C16.3352 13.9644 16.3352 13.9644 16.3349 13.9644C16.3347 13.9644 16.3344 13.9644 16.3341 13.9644C15.5901 13.9641 14.6469 13.5211 14.1518 12.9633L14.4709 12.5134C14.9797 12.9327 15.7256 13.2368 16.3349 13.2368C16.9746 13.2368 17.6435 12.9152 18.1033 12.5191L18.4196 12.965C17.9262 13.5375 17.0549 13.9639 16.3355 13.9644Z" fill="#109CF1" stroke="#109CF1" stroke-width="0.5"/>
</svg>
