<svg width="17" height="17" viewBox="0 0 17 17" fill="none" xmlns="http://www.w3.org/2000/svg">
<path d="M10.2971 10.2969L6.23253 6.23229M10.2971 10.2969C10.2971 10.2969 12.6131 7.98091 14.8097 5.78432M10.2971 10.2969L14.8097 5.78432M6.23253 6.23229C6.23253 6.23229 8.35749 4.10733 10.7451 1.71974M6.23253 6.23229L10.7451 1.71974M10.7451 1.71974C13.1327 -0.667852 17.0063 3.58774 14.8097 5.78432" stroke="white" stroke-width="0.3"/>
<path d="M6.23242 6.23236L10.297 10.2969L5.78446 14.8095C3.39686 17.1971 -0.476712 12.9415 1.71987 10.7449L6.23242 6.23236Z" fill="white"/>
<path d="M6.23242 6.23236L10.297 10.2969M6.23242 6.23236C6.23242 6.23236 3.91646 8.54833 1.71987 10.7449M6.23242 6.23236L1.71987 10.7449M10.297 10.2969C10.297 10.2969 8.17205 12.4219 5.78446 14.8095M10.297 10.2969L5.78446 14.8095M5.78446 14.8095C3.39686 17.1971 -0.476712 12.9415 1.71987 10.7449" stroke="white" stroke-width="0.3"/>
</svg>
