<svg width="236" height="263" viewBox="0 0 236 263" fill="none" xmlns="http://www.w3.org/2000/svg">
<g opacity="0.2">
<path d="M120 73.0158C120 49.7904 145.806 30.8154 177.532 30.8154C209.259 30.8154 235.065 49.6386 235.065 73.0158V177.302H234.913C235.065 178.517 235.065 179.731 235.065 180.946C235.065 204.171 209.259 223.146 177.532 223.146C145.806 223.146 120 204.323 120 180.946C120 179.124 120.152 177.454 120.456 175.784C120.456 175.633 120 74.8374 120 73.0158Z" fill="url(#paint0_linear)"/>
<path d="M177.532 214.493C152.884 214.493 132.903 205.047 132.903 193.393C132.903 181.74 152.884 172.293 177.532 172.293C202.18 172.293 222.162 181.74 222.162 193.393C222.162 205.047 202.18 214.493 177.532 214.493Z" fill="#3B6BD9"/>
<path opacity="0.27" d="M204.553 183.071L213.054 180.946C219.277 179.428 224.439 172.597 224.439 165.766V85.3116C224.439 78.4806 219.277 74.2302 213.054 75.7482L204.553 77.8734C198.329 79.3914 193.168 86.2224 193.168 93.0534V173.507C193.168 180.187 198.329 184.589 204.553 183.071Z" fill="#FCFEFF"/>
<path d="M176.318 52.0674C158.712 52.0674 144.44 44.7953 144.44 35.8248C144.44 26.8543 158.712 19.5822 176.318 19.5822C193.924 19.5822 208.196 26.8543 208.196 35.8248C208.196 44.7953 193.924 52.0674 176.318 52.0674Z" fill="#2F6AD6"/>
<path d="M144.44 35.8248C144.44 44.781 158.709 52.0674 176.318 52.0674L182.694 51.7638C164.174 47.817 154.459 38.8608 155.218 23.6808C148.539 26.7168 144.44 30.9672 144.44 35.8248Z" fill="#2B60C2"/>
<path d="M176.318 48.1206C160.389 48.1206 147.476 41.5282 147.476 33.396C147.476 25.2638 160.389 18.6714 176.318 18.6714C192.247 18.6714 205.16 25.2638 205.16 33.396C205.16 41.5282 192.247 48.1206 176.318 48.1206Z" fill="#6094F5"/>
<path d="M147.476 14.7246H205.008V33.396H147.476V14.7246Z" fill="#6094F5"/>
<path d="M176.318 48.1206C160.379 48.1206 147.476 41.5932 147.476 33.396V14.7246C153.7 30.6636 162.808 42.6558 176.318 48.1206Z" fill="#4C87F5"/>
<path d="M176.318 29.4492C160.389 29.4492 147.476 22.8568 147.476 14.7246C147.476 6.59243 160.389 0 176.318 0C192.247 0 205.16 6.59243 205.16 14.7246C205.16 22.8568 192.247 29.4492 176.318 29.4492Z" fill="#85B0FF"/>
<path d="M175.863 22.6182C166.137 22.6182 158.254 18.6084 158.254 13.662C158.254 8.71563 166.137 4.70581 175.863 4.70581C185.588 4.70581 193.471 8.71563 193.471 13.662C193.471 18.6084 185.588 22.6182 175.863 22.6182Z" fill="#B8D1FF"/>
<path d="M201.669 37.191C202.276 37.191 202.883 36.5838 202.883 35.9766V25.3506C202.883 24.7434 202.276 24.1362 201.669 24.1362C201.061 24.1362 200.454 24.7434 200.454 25.3506V35.9766C200.454 36.5838 201.061 37.191 201.669 37.191Z" fill="#B8D1FF"/>
<path d="M195.748 40.986C196.356 40.986 196.963 40.3788 196.963 39.7716V29.1456C196.963 28.5384 196.356 27.9312 195.748 27.9312C195.141 27.9312 194.534 28.5384 194.534 29.1456V39.7716C194.534 40.3788 195.141 40.986 195.748 40.986Z" fill="#B8D1FF"/>
<path d="M189.525 43.263C190.132 43.263 190.739 42.6558 190.739 42.0486V31.4226C190.739 30.8154 190.132 30.2082 189.525 30.2082C188.917 30.2082 188.31 30.8154 188.31 31.4226V42.0486C188.31 42.6558 188.917 43.263 189.525 43.263Z" fill="#B8D1FF"/>
<path d="M182.542 45.0846C183.149 45.0846 183.756 44.4774 183.756 43.8702V33.2442C183.756 32.637 183.149 32.0298 182.542 32.0298C181.935 32.0298 181.327 32.637 181.327 33.2442V43.8702C181.327 44.4774 181.935 45.0846 182.542 45.0846Z" fill="#B8D1FF"/>
<path d="M150.36 37.191C149.753 37.191 149.146 36.5838 149.146 35.9766V25.3506C149.146 24.7434 149.753 24.1362 150.36 24.1362C150.967 24.1362 151.575 24.7434 151.575 25.3506V35.9766C151.575 36.5838 151.119 37.191 150.36 37.191Z" fill="#B8D1FF"/>
<path d="M156.28 40.986C155.673 40.986 155.066 40.3788 155.066 39.7716V29.1456C155.066 28.5384 155.673 27.9312 156.28 27.9312C156.888 27.9312 157.495 28.5384 157.495 29.1456V39.7716C157.647 40.3788 157.039 40.986 156.28 40.986Z" fill="#B8D1FF"/>
<path d="M162.504 43.263C161.897 43.263 161.29 42.6558 161.29 42.0486V31.4226C161.29 30.8154 161.897 30.2082 162.504 30.2082C163.111 30.2082 163.719 30.8154 163.719 31.4226V42.0486C163.719 42.6558 163.111 43.263 162.504 43.263Z" fill="#B8D1FF"/>
<path d="M169.487 45.0846C168.88 45.0846 168.273 44.4774 168.273 43.8702V33.2442C168.273 32.637 168.88 32.0298 169.487 32.0298C170.094 32.0298 170.701 32.637 170.701 33.2442V43.8702C170.701 44.4774 170.094 45.0846 169.487 45.0846Z" fill="#B8D1FF"/>
<path d="M175.863 45.8436C176.47 45.8436 177.077 45.2364 177.077 44.6292V34.0032C177.077 33.396 176.47 32.7888 175.863 32.7888C175.255 32.7888 174.648 33.396 174.648 34.0032V44.6292C174.648 45.3882 175.104 45.8436 175.863 45.8436Z" fill="#B8D1FF"/>
</g>
<g opacity="0.2">
<path opacity="0.31" d="M111.632 254.947C111.632 259.045 117.552 262.233 124.99 262.233C132.428 262.233 138.349 258.893 138.349 254.947C138.349 251 132.428 247.66 124.99 247.66C117.552 247.66 111.632 251 111.632 254.947Z" fill="#2E4787"/>
<path opacity="0.31" d="M85.3705 229.596L85.6741 229.292L88.2547 225.953L88.5583 225.497C89.9245 224.131 92.0497 223.524 94.7821 223.828C100.702 224.435 107.23 229.596 109.203 235.364C110.114 237.945 109.962 240.222 108.9 241.74L105.712 245.839C104.345 247.205 102.22 247.964 99.3361 247.66C93.4159 247.053 86.8885 241.892 84.9151 236.123C84.1561 233.543 84.3079 231.266 85.3705 229.596Z" fill="#2E4787"/>
<path opacity="0.31" d="M-6.16487 191.494L63.3595 229.444C64.1185 228.989 64.5739 228.685 64.5739 228.685L91.8979 223.828L92.5051 236.275C92.5051 236.275 81.2719 244.624 68.6725 241.133C62.9041 242.195 57.8947 240.829 54.0997 237.186L-8.44187 202.272C-9.65627 201.817 -10.7189 201.361 -11.6297 200.754C-17.5499 196.959 -12.2369 188.155 -6.16487 191.494Z" fill="#2E4787"/>
<path d="M-11.6297 176.921C-12.6923 157.491 -0.244682 133.203 15.9979 122.729C23.7397 117.719 31.0261 116.657 36.6427 119.086C37.2499 119.389 37.8571 119.693 38.3125 119.996L107.533 155.062L63.0559 232.025L0.210732 196.959C-6.46847 194.682 -11.0225 187.699 -11.6297 176.921Z" fill="url(#paint1_linear)"/>
<path d="M66.4526 234.375C53.7596 227.894 52.5552 204.846 63.7627 182.894C74.9701 160.942 94.3454 148.401 107.038 154.881C119.731 161.362 120.936 184.41 109.728 206.362C98.5209 228.313 79.1457 240.855 66.4526 234.375Z" fill="#4072DD"/>
<path d="M76.036 230.678C65.5653 225.374 64.5095 206.402 73.6779 188.303C82.8463 170.203 98.7669 159.83 109.238 165.135C119.708 170.439 120.764 189.411 111.596 207.51C102.427 225.609 86.5067 235.982 76.036 230.678Z" fill="#B8D1FF"/>
<path opacity="0.37" d="M1.95897 190.147C-8.51175 184.843 -9.56752 165.871 -0.399138 147.772C8.76924 129.672 24.6899 119.3 35.1606 124.604C45.6313 129.908 46.6871 148.88 37.5187 166.979C28.3503 185.079 12.4297 195.451 1.95897 190.147Z" fill="#3B6BD9"/>
<path d="M87.4957 166.295C95.3893 161.134 102.676 160.831 107.837 164.322C104.346 164.626 100.399 165.992 96.3001 168.572C81.8791 177.832 71.1013 199.236 71.8603 216.389C72.3157 223.979 74.8963 229.596 79.1467 232.48C70.1905 233.087 63.6631 226.408 63.0559 214.112C62.2969 196.959 73.2265 175.555 87.4957 166.295Z" fill="#85B0FF"/>
<path d="M90.8352 228.23C105.256 218.97 116.034 197.566 115.275 180.413C114.82 172.823 112.239 167.206 107.989 164.322C116.945 163.715 123.472 170.394 124.079 182.69C124.99 199.843 114.061 221.095 99.6396 230.507C91.746 235.668 84.4596 235.972 79.2984 232.48C82.7898 232.177 86.7366 230.81 90.8352 228.23Z" fill="#85B0FF"/>
<path opacity="0.18" d="M38.4643 137.453L75.0481 156.884C77.7805 158.402 81.2719 157.339 82.6381 154.607C84.1561 151.874 83.0935 148.383 80.3611 147.017L43.7773 127.586C41.0449 126.068 37.5535 127.131 36.1873 129.863C34.6693 132.596 35.7319 136.087 38.4643 137.453Z" fill="#9BBAFD"/>
<path d="M78.843 230.81C84.3078 233.391 92.505 232.328 97.2108 228.533C101.917 224.738 101.158 219.577 95.8446 217.148C90.3798 214.568 82.1826 215.63 77.4768 219.425C72.771 223.069 73.3782 228.23 78.843 230.81Z" fill="#CFDEFF"/>
<path d="M73.7783 220.798L99.6842 217.534L100.329 222.655L74.4234 225.919L73.7783 220.798Z" fill="#CFDEFF"/>
<path d="M78.236 226.56C83.7008 229.141 91.898 228.078 96.6038 224.283C101.31 220.488 100.551 215.327 95.2376 212.898C89.7728 210.317 81.5756 211.38 76.8698 215.175C72.164 218.818 72.7712 223.979 78.236 226.56Z" fill="white"/>
<path d="M77.1309 220.355C76.7222 217.111 80.6392 213.945 85.8797 213.285C91.1202 212.625 95.6998 214.72 96.1085 217.964C96.5172 221.208 92.6002 224.373 87.3597 225.033C82.1192 225.693 77.5396 223.599 77.1309 220.355Z" fill="#CFDEFF"/>
<path d="M91.5944 235.972C93.5678 241.588 100.095 246.749 106.015 247.508C111.936 248.116 115.275 244.169 113.15 238.552C111.177 232.936 104.649 227.774 98.729 227.015C92.8088 226.256 89.621 230.355 91.5944 235.972Z" fill="#CFDEFF"/>
<path d="M95.172 225.239L115.613 241.484L112.402 245.525L91.9606 229.28L95.172 225.239Z" fill="#CFDEFF"/>
<path d="M94.1749 232.632C96.1483 238.249 102.676 243.41 108.596 244.169C114.516 244.776 117.856 240.829 115.731 235.213C113.757 229.596 107.23 224.435 101.31 223.676C95.3893 222.917 92.2015 227.015 94.1749 232.632Z" fill="white"/>
<path d="M97.5145 232.48C99.0325 236.579 103.738 240.374 108.141 240.829C112.543 241.285 114.82 238.4 113.454 234.15C111.936 230.051 107.23 226.256 102.828 225.801C98.2735 225.497 95.9965 228.382 97.5145 232.48Z" fill="#CFDEFF"/>
<path d="M96.3 213.353C102.22 211.987 107.989 206.067 109.355 200.299C110.721 194.378 107.078 190.735 101.158 192.253C95.2374 193.619 89.469 199.54 88.1028 205.308C86.8884 211.076 90.5316 214.72 96.3 213.353Z" fill="#CFDEFF"/>
<path d="M86.1928 208.652L104.566 190.101L108.233 193.733L89.8599 212.284L86.1928 208.652Z" fill="#CFDEFF"/>
<path d="M93.264 210.317C99.1842 208.951 104.953 203.031 106.319 197.263C107.685 191.342 104.042 187.699 98.1216 189.217C92.2014 190.583 86.433 196.504 85.0668 202.272C83.8524 208.192 87.4956 211.835 93.264 210.317Z" fill="white"/>
<path d="M93.5677 207.13C97.8181 206.067 102.069 201.817 103.131 197.566C104.042 193.316 101.461 190.583 97.2109 191.646C92.9605 192.709 88.7101 196.959 87.6475 201.209C86.5849 205.46 89.3173 208.192 93.5677 207.13Z" fill="#CFDEFF"/>
<path d="M123.169 259.349C128.178 262.688 136.527 262.84 141.688 259.804C146.85 256.768 147.001 251.607 141.992 248.267C136.983 244.928 128.634 244.776 123.472 247.812C118.311 251 118.159 256.161 123.169 259.349Z" fill="#CFDEFF"/>
<path d="M119.576 248.76L145.681 249.324L145.569 254.484L119.465 253.921L119.576 248.76Z" fill="#CFDEFF"/>
<path d="M123.32 255.098C128.33 258.438 136.679 258.59 141.84 255.554C147.001 252.518 147.153 247.357 142.144 244.017C137.134 240.677 128.785 240.526 123.624 243.562C118.311 246.749 118.311 251.911 123.32 255.098Z" fill="white"/>
<path d="M125.749 253.125C129.392 255.554 135.464 255.706 139.259 253.429C143.054 251.152 143.054 247.357 139.411 244.928C135.768 242.499 129.696 242.347 125.901 244.624C122.258 246.901 122.106 250.696 125.749 253.125Z" fill="#CFDEFF"/>
</g>
<defs>
<linearGradient id="paint0_linear" x1="235.014" y1="126.968" x2="120.007" y2="126.968" gradientUnits="userSpaceOnUse">
<stop offset="0.0368419" stop-color="#7DA6FF"/>
<stop offset="0.2491" stop-color="#76A0FB"/>
<stop offset="0.566" stop-color="#618EEF"/>
<stop offset="0.9465" stop-color="#4072DD"/>
<stop offset="1" stop-color="#3B6DDA"/>
</linearGradient>
<linearGradient id="paint1_linear" x1="61.5841" y1="131.445" x2="21.1881" y2="210.582" gradientUnits="userSpaceOnUse">
<stop offset="0.0438595" stop-color="#7BA4FE"/>
<stop offset="0.8263" stop-color="#3F71DD"/>
</linearGradient>
</defs>
</svg>
