<svg width="25" height="25" viewBox="0 0 25 25" fill="none" xmlns="http://www.w3.org/2000/svg">
<path d="M21.8941 12.68L19.2402 9.56094C19.4122 8.82992 19.8881 6.24729 18.6435 4.12496C17.8705 2.8066 16.5864 1.92819 14.8273 1.51429C8.30053 -0.0204478 5.08911 2.97583 4.30301 4.77434C3.58613 6.41181 2.92286 9.04059 3.41244 11.0602C3.72608 12.3565 4.40921 13.2627 5.01169 14.0622C5.68886 14.9604 6.27348 15.7361 6.27348 16.8942V21.4997C6.27348 21.7054 6.43998 21.8719 6.64569 21.8719H14.742C14.9477 21.8719 15.1142 21.7054 15.1142 21.4997V19.3848C16.276 19.7483 18.736 20.35 19.3246 19.1503C19.6613 18.4619 20.0248 15.0135 20.1375 13.8719L21.741 13.2704C21.8546 13.2279 21.9402 13.1327 21.9705 13.0153C22.0013 12.8972 21.9725 12.7724 21.8941 12.68ZM19.6591 13.2557C19.5258 13.3056 19.4328 13.4272 19.4194 13.5686C19.2494 15.3438 18.8921 18.3394 18.6566 18.822C18.3688 19.4088 16.2717 19.0217 14.8683 18.517C14.7539 18.4758 14.6273 18.493 14.5281 18.5627C14.4288 18.6324 14.3698 18.7461 14.3698 18.8671V21.1269H7.0179V16.8937C7.0179 15.4865 6.33204 14.5766 5.60599 13.6135C5.01963 12.8356 4.41318 12.0312 4.13576 10.8845C3.68986 9.04481 4.31442 6.60387 4.98489 5.07236C6.47025 1.67385 11.5827 1.51553 14.6569 2.23861C16.2082 2.60387 17.333 3.36367 17.9993 4.49742C18.3767 5.1396 18.572 5.84208 18.6611 6.51404C18.5382 6.39469 18.3449 6.37211 18.1961 6.47062C18.1911 6.47409 17.6913 6.80437 16.941 7.18873C16.7581 7.28228 16.6856 7.50685 16.7794 7.68973C16.8454 7.81826 16.9757 7.89221 17.111 7.89221C17.168 7.89221 17.2261 7.87905 17.2804 7.85102C18.0675 7.44779 18.5861 7.10511 18.6077 7.09072C18.6487 7.06367 18.6817 7.02943 18.708 6.99146C18.7973 8.38352 18.4794 9.53489 18.4742 9.553C18.4402 9.6726 18.468 9.80164 18.5487 9.89642L20.9839 12.7587L19.6591 13.2557Z" fill="white" stroke="white" stroke-width="0.5"/>
<path d="M10.9075 10.7626C10.8931 10.5576 10.7189 10.3993 10.51 10.4174C10.305 10.4318 10.1504 10.6097 10.1648 10.8149C10.2211 11.6164 10.4926 12.5293 10.9718 13.5284C11.0358 13.6619 11.1688 13.7398 11.3077 13.7398C11.3618 13.7398 11.4164 13.7279 11.4683 13.703C11.6536 13.6142 11.7318 13.3919 11.643 13.2065C11.2048 12.2924 10.9574 11.47 10.9075 10.7626Z" fill="white" stroke="white" stroke-width="0.5"/>
<path d="M14.5015 8.15786C13.9057 8.31593 13.2707 8.39062 12.7102 8.45637C12.4107 8.49161 12.1278 8.52461 11.8653 8.56779C11.6625 8.60104 11.5251 8.7926 11.5586 8.99558C11.5886 9.17796 11.7464 9.30724 11.9253 9.30724C11.9454 9.30724 11.9658 9.30575 11.9863 9.30228C12.2318 9.26183 12.5062 9.22982 12.797 9.19558C13.3821 9.12685 14.0454 9.04918 14.6965 8.87622L14.6988 8.87573C14.896 8.82089 15.0109 8.61742 14.9573 8.4199C14.9035 8.22213 14.6985 8.10526 14.5015 8.15786Z" fill="white" stroke="white" stroke-width="0.5"/>
<path d="M13.0023 15.4772C12.8834 15.3094 12.6509 15.2697 12.4834 15.3886C12.3157 15.5075 12.2762 15.7397 12.3948 15.9074C12.9092 16.6335 13.3082 17.096 13.3251 17.1154C13.3986 17.2003 13.5023 17.2439 13.6065 17.2439C13.6928 17.2439 13.7794 17.2139 13.8499 17.1531C14.0053 17.0186 14.0224 16.7836 13.8879 16.628C13.8839 16.6238 13.4941 16.1717 13.0023 15.4772Z" fill="white" stroke="white" stroke-width="0.5"/>
</svg>
