<svg width="12" height="12" viewBox="0 0 12 12" fill="none" xmlns="http://www.w3.org/2000/svg">
<path d="M4.94533 5.74258V3.79421H5.69046C5.7892 3.79421 5.86912 3.71429 5.86912 3.61555C5.86912 3.51681 5.7892 3.43689 5.69046 3.43689H4.76667H2.91896H1.99493C1.8962 3.43689 1.81628 3.51681 1.81628 3.61555C1.81628 3.71429 1.8962 3.79421 1.99493 3.79421H2.7403V5.74258L1.83057 7.81982V7.81982L1.10973 9.4659C1.09985 9.48841 1.09473 9.51294 1.09473 9.5376C1.09473 10.2532 1.61463 10.8354 2.25363 10.8354H5.43164C6.07089 10.8354 6.59102 10.2532 6.59102 9.5376C6.59102 9.51294 6.5859 9.48853 6.57602 9.4659L4.94533 5.74258ZM3.08262 5.85156C3.0925 5.82905 3.09763 5.80452 3.09763 5.77986V3.79409H4.58801V5.77986C4.58801 5.80452 4.59313 5.82893 4.60301 5.85156L5.41735 7.71108H2.26817L3.08262 5.85156ZM5.43164 10.4778H2.25363C1.82187 10.4778 1.46884 10.0754 1.45264 9.57345L2.11178 8.06828H5.57397L6.23311 9.57345C6.21679 10.0754 5.86352 10.4778 5.43164 10.4778Z" fill="#109CF1"/>
<path d="M10.7282 1.07556H7.80317C7.70443 1.07556 7.62451 1.15548 7.62451 1.25422C7.62451 1.35296 7.70443 1.43289 7.80317 1.43289H8.1244V9.55783C8.1244 10.2621 8.63644 10.8351 9.2658 10.8351C9.89504 10.8351 10.4071 10.2621 10.4071 9.55783V1.43289H10.7283C10.8271 1.43289 10.907 1.35296 10.907 1.25422C10.907 1.15548 10.8268 1.07556 10.7282 1.07556ZM10.0496 9.55795C10.0496 10.0652 9.69792 10.4779 9.26568 10.4779C8.83344 10.4779 8.4816 10.0652 8.4816 9.55795V6.79381H9.224C9.32274 6.79381 9.40266 6.71389 9.40266 6.61515C9.40266 6.51641 9.32274 6.43649 9.224 6.43649H8.4816V5.46528H9.224C9.32274 5.46528 9.40266 5.38536 9.40266 5.28662C9.40266 5.18788 9.32274 5.10796 9.224 5.10796H8.4816V4.13687H9.224C9.32274 4.13687 9.40266 4.05695 9.40266 3.95821C9.40266 3.85947 9.32274 3.77955 9.224 3.77955H8.4816V2.80882H9.224C9.32274 2.80882 9.40266 2.7289 9.40266 2.63016C9.40266 2.53142 9.32274 2.4515 9.224 2.4515H8.4816V1.43289H10.0495L10.0496 9.55795Z" fill="#109CF1"/>
</svg>
