<svg width="25" height="25" viewBox="0 0 25 25" fill="none" xmlns="http://www.w3.org/2000/svg">
<path d="M14.3767 15.3765L9.09649 10.0963M14.3767 15.3765C14.3767 15.3765 17.3853 12.3679 20.2389 9.51436M14.3767 15.3765L20.2389 9.51436M9.09649 10.0963C9.09649 10.0963 11.857 7.33582 14.9587 4.23414M9.09649 10.0963L14.9587 4.23414M14.9587 4.23414C18.0603 1.13247 23.0924 6.66082 20.2389 9.51436" stroke="white" stroke-width="0.3"/>
<path d="M9.09644 10.0964L14.3767 15.3766L8.51449 21.2388C5.41282 24.3404 0.380737 18.8121 3.23427 15.9585L9.09644 10.0964Z" fill="white"/>
<path d="M9.09644 10.0964L14.3767 15.3766M9.09644 10.0964C9.09644 10.0964 6.08781 13.105 3.23427 15.9585M9.09644 10.0964L3.23427 15.9585M14.3767 15.3766C14.3767 15.3766 11.6162 18.1371 8.51449 21.2388M14.3767 15.3766L8.51449 21.2388M8.51449 21.2388C5.41282 24.3404 0.380737 18.8121 3.23427 15.9585" stroke="white" stroke-width="0.3"/>
</svg>
