<svg width="25" height="25" viewBox="0 0 25 25" fill="none" xmlns="http://www.w3.org/2000/svg">
<path d="M8.70551 15.5592H13.5223C13.7277 15.5592 13.8945 15.3927 13.8945 15.187C13.8945 14.9813 13.7277 14.8148 13.5223 14.8148H8.70551C8.50006 14.8148 8.33331 14.9813 8.33331 15.187C8.33331 15.3927 8.50006 15.5592 8.70551 15.5592Z" fill="#90A0B7" stroke="#90A0B7" stroke-width="0.5"/>
<path d="M15.1865 17.5926H6.85371C6.64825 17.5926 6.48151 17.7591 6.48151 17.9648C6.48151 18.1705 6.64825 18.337 6.85371 18.337H15.1865C15.392 18.337 15.5587 18.1705 15.5587 17.9648C15.5587 17.7591 15.392 17.5926 15.1865 17.5926Z" fill="#90A0B7" stroke="#90A0B7" stroke-width="0.5"/>
<path d="M13.5223 19.4445H8.70551C8.50006 19.4445 8.33331 19.611 8.33331 19.8167C8.33331 20.0224 8.50006 20.1889 8.70551 20.1889H13.5223C13.7277 20.1889 13.8945 20.0224 13.8945 19.8167C13.8945 19.611 13.7277 19.4445 13.5223 19.4445Z" fill="#90A0B7" stroke="#90A0B7" stroke-width="0.5"/>
<path d="M8.8078 9.66517H11.1011V11.6306C11.1011 11.8553 11.3137 12.0371 11.5756 12.0371C11.8376 12.0371 12.0501 11.8553 12.0501 11.6306V9.66517H14.3403C14.6022 9.66517 14.8148 9.48336 14.8148 9.25874C14.8148 9.03413 14.6022 8.85232 14.3403 8.85232H12.0501V6.88793C12.0501 6.66331 11.8376 6.48151 11.5756 6.48151C11.3137 6.48151 11.1011 6.66331 11.1011 6.88793V8.85232H8.8078C8.54588 8.85232 8.33331 9.03413 8.33331 9.25874C8.33331 9.48336 8.54588 9.66517 8.8078 9.66517Z" fill="#90A0B7" stroke="#90A0B7" stroke-width="0.5"/>
<path d="M21.7629 2.10504H6.47602C6.23265 2.10504 6.03514 2.28478 6.03514 2.50683V4.43169H3.90395C3.66059 4.43169 3.46307 4.61142 3.46307 4.83348V22.481C3.46307 22.7031 3.66059 22.8828 3.90395 22.8828H19.1932C19.4366 22.8828 19.6341 22.7031 19.6341 22.481V20.5562H21.7629C22.0063 20.5562 22.2038 20.3764 22.2038 20.1544V2.50657C22.2038 2.28504 22.0063 2.10504 21.7629 2.10504ZM4.34483 22.0795V5.23554H18.7523V20.1367C18.7521 20.1429 18.7503 20.1488 18.7503 20.1549C18.7503 20.1611 18.7521 20.167 18.7523 20.1731V22.0798H4.34483V22.0795ZM21.3221 19.7529H19.6341V4.83348C19.6341 4.61142 19.4366 4.43169 19.1932 4.43169H6.91689V2.90863H21.3221V19.7529Z" fill="#90A0B7" stroke="#90A0B7" stroke-width="0.5"/>
</svg>
