<svg width="28" height="28" viewBox="0 0 28 28" fill="none" xmlns="http://www.w3.org/2000/svg">
<g clip-path="url(#clip0_419_21344)">
<path d="M24.8037 5.88525H2.39574C2.28703 5.88525 2.18277 5.92844 2.1059 6.00531C2.02903 6.08218 1.98584 6.18644 1.98584 6.29515V20.5051C1.98584 20.6138 2.02903 20.718 2.1059 20.7949C2.18277 20.8718 2.28703 20.915 2.39574 20.915H24.8037C24.9124 20.915 25.0166 20.8718 25.0935 20.7949C25.1704 20.718 25.2136 20.6138 25.2136 20.5051V6.29515C25.2136 6.18644 25.1704 6.08218 25.0935 6.00531C25.0166 5.92844 24.9124 5.88525 24.8037 5.88525ZM24.3938 20.0952H2.80564V6.70506H24.3938V20.0952Z" fill="white" stroke="white" stroke-width="0.5"/>
<path d="M4.71849 18.7288H12.6432C12.752 18.7288 12.8562 18.6856 12.9331 18.6087C13.01 18.5319 13.0531 18.4276 13.0531 18.3189C13.0337 17.1778 12.5625 16.091 11.7428 15.297C10.9232 14.5029 9.82197 14.0664 8.68087 14.0832C7.53977 14.0664 6.43859 14.5029 5.61892 15.297C4.79924 16.091 4.32801 17.1778 4.30859 18.3189C4.30859 18.4276 4.35178 18.5319 4.42865 18.6087C4.50552 18.6856 4.60978 18.7288 4.71849 18.7288ZM8.68087 14.903C9.53367 14.8902 10.362 15.1881 11.0112 15.7413C11.6604 16.2944 12.0861 17.065 12.2088 17.909H5.15299C5.27568 17.065 5.70137 16.2944 6.35056 15.7413C6.99975 15.1881 7.82808 14.8902 8.68087 14.903V14.903Z" fill="white" stroke="white" stroke-width="0.5"/>
<path d="M8.68068 13.2635C9.14008 13.2635 9.58917 13.1272 9.97115 12.872C10.3531 12.6168 10.6508 12.254 10.8266 11.8296C11.0024 11.4051 11.0484 10.9381 10.9588 10.4875C10.8692 10.037 10.648 9.62309 10.3231 9.29825C9.99828 8.9734 9.58441 8.75218 9.13383 8.66255C8.68326 8.57293 8.21623 8.61893 7.7918 8.79473C7.36736 8.97054 7.0046 9.26825 6.74937 9.65023C6.49414 10.0322 6.35791 10.4813 6.35791 10.9407C6.35863 11.5565 6.60359 12.1469 7.03903 12.5823C7.47448 13.0178 8.06487 13.2627 8.68068 13.2635V13.2635ZM8.68068 9.43772C8.97794 9.43772 9.26853 9.52587 9.51569 9.69102C9.76285 9.85617 9.95549 10.0909 10.0692 10.3655C10.183 10.6402 10.2128 10.9424 10.1548 11.2339C10.0968 11.5255 9.95364 11.7933 9.74344 12.0035C9.53325 12.2136 9.26545 12.3568 8.9739 12.4148C8.68235 12.4728 8.38015 12.443 8.10552 12.3293C7.83089 12.2155 7.59616 12.0229 7.43101 11.7757C7.26586 11.5285 7.17771 11.238 7.17771 10.9407C7.17843 10.5423 7.33701 10.1604 7.61872 9.87873C7.90042 9.59703 8.28229 9.43844 8.68068 9.43772Z" fill="white" stroke="white" stroke-width="0.5"/>
<path d="M13.8733 11.0774H22.0713C22.18 11.0774 22.2843 11.0342 22.3611 10.9573C22.438 10.8804 22.4812 10.7762 22.4812 10.6675C22.4812 10.5588 22.438 10.4545 22.3611 10.3776C22.2843 10.3008 22.18 10.2576 22.0713 10.2576H13.8733C13.7646 10.2576 13.6603 10.3008 13.5834 10.3776C13.5066 10.4545 13.4634 10.5588 13.4634 10.6675C13.4634 10.7762 13.5066 10.8804 13.5834 10.9573C13.6603 11.0342 13.7646 11.0774 13.8733 11.0774V11.0774Z" fill="white" stroke="white" stroke-width="0.5"/>
<path d="M13.8733 14.9031H22.0713C22.18 14.9031 22.2843 14.8599 22.3611 14.783C22.438 14.7061 22.4812 14.6019 22.4812 14.4932C22.4812 14.3844 22.438 14.2802 22.3611 14.2033C22.2843 14.1264 22.18 14.0833 22.0713 14.0833H13.8733C13.7646 14.0833 13.6603 14.1264 13.5834 14.2033C13.5066 14.2802 13.4634 14.3844 13.4634 14.4932C13.4634 14.6019 13.5066 14.7061 13.5834 14.783C13.6603 14.8599 13.7646 14.9031 13.8733 14.9031V14.9031Z" fill="white" stroke="white" stroke-width="0.5"/>
</g>
<defs>
<clipPath id="clip0_419_21344">
<rect width="24" height="24" fill="white" transform="translate(1 2)"/>
</clipPath>
</defs>
</svg>
